# xmcd
#
# Track frame offsets:
#	150
#	41383
#	64566
#	117787
#	162997
#	230184
#	288096
#
# Disc length: 4306 seconds
#
# Revision: 0
# Processed by: cddbd v1.5.1PL2 Copyright (c) Steve Scherf et al.
# Submitted via: EasyCDDAExtractor 10.0.1.1
#
DISCID=5710d007
DTITLE=Grateful Dead - Red Rocks 8-30-78 - Disc 1
DYEAR=1978
DGENRE=Classic Rock
TTITLE0=I Need A Miracle
TTITLE1=Brown-Eyed Women
TTITLE2=Estimated Prophet
TTITLE3=The Other One
TTITLE4=Eyes Of The World
TTITLE5=Drums
TTITLE6=Space
EXTD=
EXTT0=
EXTT1=
EXTT2=
EXTT3=
EXTT4=
EXTT5=
EXTT6=
PLAYORDER=
